{"title":"Les.Beaux.Gosses.2009.FRENCH.DVDRiP.XViD.avi","uid":5566250,"size":733769728,"categoryP":"video","categoryS":"movies","magnet":"?xt=urn:btih:3dcf5bda82b12c1e33b44f6ce8f824f8cb7ac148&amp;dn=Les.Beaux.Gosses.2009.FRENCH.DVDRiP.XViD.avi&amp;tr=udp%3A%2F%2Ftracker.openbittorrent.com%3A80&amp;tr=udp%3A%2F%2Fopen.demonii.com%3A1337&amp;tr=udp%3A%2F%2Ftracker.coppersurfer.tk%3A6969&amp;tr=udp%3A%2F%2Fexodus.desync.com%3A6969","seeders":20,"leechers":0,"uploader":"LinguaLatina","files":-1,"time":1273992957,"description":"Les beaux gosses / The French Kissers (2009)\n\n\n14-year-old HervÃƒÂ© is an average teenager who lives alone with his mother and struggles to cope with his urges, unprepossessing physique and mediocre intellect. He just gets by at school, surrounded as he is by his best buddies. Going out with girls is his major preoccupation. Sadly, in this field, he keeps striking out. But he never says die. One day, without really knowing how, he finds himself in the good books of Aurore, one of the prettiest girls in class. Surrounded by a gallery of saucy, wild characters, HervÃƒÂ© tries to grow up in this little world in perpetual movement, this world of adolescence in which emotions must be dominated.\n\nOnly French language without subtitles!\n\n\n\nMedia Info:\n\n\nGeneral\n\nFormat                           : AVI\nFile size                        : 700 MiB\nDuration                         : 1h 24mn\nOverall bit rate                 : 1 152 Kbps\n\n\nVideo\n\nID                               : 0\nFormat                           : MPEG-4 Visual\nFormat profile                   : Advanced Simple@L5\nFormat settings, BVOP            : Yes\nFormat settings, QPel            : No\nFormat settings, GMC             : No warppoints\nFormat settings, Matrix          : Default (H.263)\nMuxing mode                      : Packed bitstream\nCodec ID                         : XVID\nCodec ID/Hint                    : XviD\nDuration                         : 1h 24mn\nBit rate                         : 1 007 Kbps\nWidth                            : 576 pixels\nHeight                           : 304 pixels\nDisplay aspect ratio             : 1.895\nFrame rate                       : 25.000 fps\nColor space                      : YUV\nChroma subsampling               : 4:2:0\nBit depth                        : 8 bits\nScan type                        : Progressive\nBits/(Pixel*Frame)               : 0.230\nStream size                      : 612 MiB (87%)\nWriting library                  : XviD 1.0.1 (UTC 2004-06-05)\n\n\nAudio\n\nID                               : 1\nFormat                           : MPEG Audio\nFormat version                   : Version 1\nFormat profile                   : Layer 3\nMode                             : Joint stereo\nMode extension                   : MS Stereo\nCodec ID                         : 55\nCodec ID/Hint                    : MP3\nDuration                         : 1h 24mn\nBit rate mode                    : Variable\nBit rate                         : 128 Kbps\nChannel(s)                       : 2 channels\nSampling rate                    : 48.0 KHz\nStream size                      : 80.1 MiB (11%)\nAlignment                        : Aligned on interleaves\nInterleave, duration             : 24 ms (0.60 video frame)\nInterleave, preload duration     : 133 ms\nWriting library                  : LAME3.90.\nEncoding settings                : -m j -V 4 -q 2 -lowpass 17.6 --abr 128","torrent":{"xt":"urn:btih:3dcf5bda82b12c1e33b44f6ce8f824f8cb7ac148","amp;dn":"Les.Beaux.Gosses.2009.FRENCH.DVDRiP.XViD.avi","amp;tr":["udp%3A%2F%2Ftracker.openbittorrent.com%3A80","udp%3A%2F%2Fopen.demonii.com%3A1337","udp%3A%2F%2Ftracker.coppersurfer.tk%3A6969","udp%3A%2F%2Fexodus.desync.com%3A6969"],"infoHash":"3dcf5bda82b12c1e33b44f6ce8f824f8cb7ac148","infoHashBuffer":{"type":"Buffer","data":[61,207,91,218,130,177,44,30,51,180,79,108,232,248,36,248,203,122,193,72]},"announce":[],"urlList":[]}}